<svg width="16" height="16" viewBox="0 0 16 16" fill="none" xmlns="http://www.w3.org/2000/svg">
<path d="M1 4.12047C1 3.14763 2.24828 2.7476 2.81373 3.53923L6.73646 9.03104C6.8006 9.12084 6.87916 9.1994 6.96896 9.26354L12.4608 13.1863C13.2524 13.7517 12.8524 15 11.8795 15H2C1.44772 15 1 14.5523 1 14V4.12047Z" fill="#EADBC8"/>
<path d="M15 11.8795C15 12.8524 13.7517 13.2524 13.1863 12.4608L9.26354 6.96896C9.1994 6.87916 9.12084 6.8006 9.03104 6.73646L3.53923 2.81373C2.7476 2.24828 3.14763 1 4.12047 1H14C14.5523 1 15 1.44772 15 2V11.8795Z" fill="#271900"/>
</svg>
